
<svg width="26px" height="26px" viewBox="0 0 26 26" version="1.1" xmlns="http://www.w3.org/2000/svg" xmlns:xlink="http://www.w3.org/1999/xlink">
    <!-- Generator: Sketch 46.1 (44463) - http://www.bohemiancoding.com/sketch -->
    <desc>Created with Sketch.</desc>
    <defs></defs>
    <g id="Page-1" stroke="none" stroke-width="1" fill="none" fill-rule="evenodd">
        <g id="Final_home02" transform="translate(-1697.000000, -20.000000)" stroke="#0071BC" stroke-width="2">
            <g id="circle-10-(2)" transform="translate(1698.000000, 21.000000)">
                <path d="M19.6363636,21.2574545 L19.6363636,20.4447273 C19.6363636,19.2698182 19.0069091,18.1854545 17.9869091,17.6029091 L14.4752727,15.5934545" id="Shape"></path>
                <path d="M9.52036364,15.5912727 L6.01309091,17.6029091 C4.99309091,18.1854545 4.36363636,19.2698182 4.36363636,20.4447273 L4.36363636,21.2574545" id="Shape"></path>
                <path d="M12,16.3636364 L12,16.3636364 C9.59018182,16.3636364 7.63636364,14.4098182 7.63636364,12 L7.63636364,9.81818182 C7.63636364,7.40836364 9.59018182,5.45454545 12,5.45454545 L12,5.45454545 C14.4098182,5.45454545 16.3636364,7.40836364 16.3636364,9.81818182 L16.3636364,12 C16.3636364,14.4098182 14.4098182,16.3636364 12,16.3636364 Z" id="Shape" stroke-linecap="square"></path>
                <circle id="Oval" stroke-linecap="square" cx="12" cy="12" r="12"></circle>
            </g>
        </g>
    </g>
</svg>