
<svg width="98px" height="40px" viewBox="0 0 98 40" version="1.1" xmlns="http://www.w3.org/2000/svg" xmlns:xlink="http://www.w3.org/1999/xlink">
    <!-- Generator: Sketch 46.1 (44463) - http://www.bohemiancoding.com/sketch -->
    <desc>Created with Sketch.</desc>
    <defs></defs>
    <g id="Page-1" stroke="none" stroke-width="1" fill="none" fill-rule="evenodd">
        <g id="search01B" transform="translate(-634.000000, -1011.000000)">
            <g id="Group-12" transform="translate(634.000000, 1011.000000)">
                <rect id="Rectangle-26" stroke="#FFFFFF" x="0.5" y="0.5" width="97" height="39" rx="19.5"></rect>
                <text id="export" font-family=".AppleSystemUIFont" font-size="12" font-weight="normal" fill="#FFFFFF">
                    <tspan x="39" y="25">export</tspan>
                </text>
                <g id="icon" opacity="0.8" transform="translate(14.000000, 9.000000)" fill-rule="nonzero" fill="#FFFFFF">
                    <path d="M21.2909231,2.53846154 L13.5384615,2.53846154 L13.5384615,5.06338462 L16.1031538,5.06338462 L16.1031538,6.78192308 L13.5384615,6.78192308 L13.5384615,8.46153846 L16.0769231,8.46153846 L16.0769231,10.1538462 L13.5384615,10.1538462 L13.5384615,11.8461538 L16.0769231,11.8461538 L16.0769231,13.5384615 L13.5384615,13.5384615 L13.5384615,15.2307692 L16.0769231,15.2307692 L16.0769231,16.9230769 L13.5384615,16.9230769 L13.5384615,19.4615385 L21.2909231,19.4615385 C21.681,19.4615385 22,19.1306923 22,18.7253846 L22,3.27461538 C22,2.86930769 21.681,2.53846154 21.2909231,2.53846154 Z M20.3076923,16.9230769 L16.9230769,16.9230769 L16.9230769,15.2307692 L20.3076923,15.2307692 L20.3076923,16.9230769 Z M20.3076923,13.5384615 L16.9230769,13.5384615 L16.9230769,11.8461538 L20.3076923,11.8461538 L20.3076923,13.5384615 Z M20.3076923,10.1538462 L16.9230769,10.1538462 L16.9230769,8.46153846 L20.3076923,8.46153846 L20.3076923,10.1538462 Z M20.3076923,6.76923077 L16.9230769,6.76923077 L16.9230769,5.07692308 L20.3076923,5.07692308 L20.3076923,6.76923077 Z" id="Shape"></path>
                    <path d="M0,2.44453846 L0,19.5563077 L12.6923077,22 L12.6923077,0 L0,2.44453846 Z M8.02830769,15.2984615 L6.55176923,12.507 C6.49592308,12.4029231 6.43838462,12.2116923 6.37830769,11.9333077 L6.35546154,11.9333077 C6.32753846,12.0644615 6.26153846,12.2641538 6.15746154,12.5315385 L4.67584615,15.2984615 L2.37515385,15.2984615 L5.10653846,11.0135385 L2.60784615,6.72776923 L4.95676923,6.72776923 L6.182,9.29753846 C6.27761538,9.50061538 6.36307692,9.74176923 6.43923077,10.0201538 L6.46292308,10.0201538 C6.51115385,9.85261538 6.60084615,9.60384615 6.732,9.273 L8.09430769,6.72692308 L10.2452308,6.72692308 L7.67546154,10.9763077 L10.3171538,15.2976154 L8.02830769,15.2984615 L8.02830769,15.2984615 Z" id="Shape"></path>
                </g>
            </g>
        </g>
    </g>
</svg>